<?xml version="1.0" encoding="UTF-8" standalone="no"?>
<!-- Generator: Adobe Illustrator 19.0.0, SVG Export Plug-In . SVG Version: 6.00 Build 0)  -->

<svg
   xmlns:dc="http://purl.org/dc/elements/1.1/"
   xmlns:cc="http://creativecommons.org/ns#"
   xmlns:rdf="http://www.w3.org/1999/02/22-rdf-syntax-ns#"
   xmlns:svg="http://www.w3.org/2000/svg"
   xmlns="http://www.w3.org/2000/svg"
   xmlns:sodipodi="http://sodipodi.sourceforge.net/DTD/sodipodi-0.dtd"
   xmlns:inkscape="http://www.inkscape.org/namespaces/inkscape"
   version="1.1"
   id="Layer_1"
   x="0px"
   y="0px"
   viewBox="0 0 55.099998 55.099998"
   xml:space="preserve"
   sodipodi:docname="Bomb.svg"
   width="55.099998"
   height="55.099998"
   inkscape:version="0.92.2 5c3e80d, 2017-08-06"><metadata
     id="metadata11"><rdf:RDF><cc:Work
         rdf:about=""><dc:format>image/svg+xml</dc:format><dc:type
           rdf:resource="http://purl.org/dc/dcmitype/StillImage" /><dc:title></dc:title></cc:Work></rdf:RDF></metadata><defs
     id="defs9" /><sodipodi:namedview
     pagecolor="#ffffff"
     bordercolor="#666666"
     borderopacity="1"
     objecttolerance="10"
     gridtolerance="10"
     guidetolerance="10"
     inkscape:pageopacity="0"
     inkscape:pageshadow="2"
     inkscape:window-width="640"
     inkscape:window-height="480"
     id="namedview7"
     showgrid="false"
     fit-margin-top="0"
     fit-margin-left="0"
     fit-margin-right="0"
     fit-margin-bottom="0"
     inkscape:zoom="3.4766083"
     inkscape:cx="23.669338"
     inkscape:cy="23.806443"
     inkscape:window-x="4527"
     inkscape:window-y="815"
     inkscape:window-maximized="0"
     inkscape:current-layer="Layer_1" /><style
     type="text/css"
     id="style2">
	.st0{fill:#333333;}
</style><g
     id="XMLID_2_"
     transform="translate(-20.4,-20.5)"><path
       id="XMLID_11_"
       class="st0"
       d="m 38,38.6 c -0.2,-0.5 -0.6,-0.9 -1,-1.1 -0.5,-0.2 -1,-0.2 -1.5,0 -2.2,0.9 -4.2,2.2 -5.9,3.9 -1.7,1.7 -3,3.7 -3.9,5.9 -0.2,0.5 -0.2,1 0,1.5 0.2,0.5 0.6,0.8 1.1,1 0.3,0.1 0.5,0.2 0.7,0.2 0.9,0 1.5,-0.4 1.8,-1.2 0.7,-1.7 1.7,-3.2 3,-4.6 1.3,-1.3 2.8,-2.3 4.6,-3 0.5,-0.2 0.9,-0.6 1.1,-1.1 0.2,-0.5 0.2,-1 0,-1.5 z m 28.9,-10.9 1.4,1.4 -7.5,7.5 2.1,2.1 c 0.4,0.4 0.6,0.9 0.6,1.4 0,0.5 -0.2,1 -0.6,1.4 l -2,2 c 1.8,3.3 2.7,6.8 2.7,10.5 0,2.9 -0.6,5.7 -1.7,8.4 -1.1,2.7 -2.7,5 -4.6,6.9 -1.9,1.9 -4.2,3.5 -6.9,4.6 -2.7,1.1 -5.5,1.7 -8.4,1.7 -2.9,0 -5.7,-0.6 -8.4,-1.7 -2.7,-1.1 -5,-2.7 -6.9,-4.6 -1.9,-1.9 -3.5,-4.2 -4.6,-6.9 -1.1,-2.7 -1.7,-5.5 -1.7,-8.4 0,-2.9 0.6,-5.7 1.7,-8.4 1.1,-2.7 2.7,-5 4.6,-6.9 1.9,-1.9 4.2,-3.5 6.9,-4.6 2.7,-1.1 5.5,-1.7 8.4,-1.7 3.7,0 7.2,0.9 10.5,2.7 l 2,-2 c 0.4,-0.4 0.9,-0.6 1.4,-0.6 0.5,0 1,0.2 1.4,0.6 l 2.1,2.1 z m 0.3,-1.8 c -0.2,0.2 -0.4,0.3 -0.7,0.3 -0.3,0 -0.5,-0.1 -0.7,-0.3 L 63,23.2 c -0.2,-0.2 -0.3,-0.4 -0.3,-0.7 0,-0.3 0.1,-0.5 0.3,-0.7 0.2,-0.2 0.4,-0.3 0.7,-0.3 0.3,0 0.5,0.1 0.7,0.3 l 2.8,2.8 c 0.2,0.2 0.3,0.4 0.3,0.7 0,0.3 -0.1,0.4 -0.3,0.6 z m 7,7.1 C 74,33.2 73.7,33.3 73.5,33.3 73.3,33.3 73,33.2 72.8,33 L 70,30.2 c -0.2,-0.2 -0.3,-0.4 -0.3,-0.7 0,-0.3 0.1,-0.5 0.3,-0.7 0.2,-0.2 0.4,-0.3 0.7,-0.3 0.3,0 0.5,0.1 0.7,0.3 l 2.8,2.8 c 0.2,0.2 0.3,0.4 0.3,0.7 0,0.3 -0.1,0.5 -0.3,0.7 z m 1.3,-5.6 c 0,0.3 -0.1,0.5 -0.3,0.7 -0.2,0.2 -0.4,0.3 -0.7,0.3 h -2.9 c -0.3,0 -0.5,-0.1 -0.7,-0.3 -0.2,-0.2 -0.3,-0.4 -0.3,-0.7 0,-0.3 0.1,-0.5 0.3,-0.7 0.2,-0.2 0.4,-0.3 0.7,-0.3 h 2.9 c 0.3,0 0.5,0.1 0.7,0.3 0.2,0.2 0.3,0.4 0.3,0.7 z m -5.9,-5.9 v 2.9 c 0,0.3 -0.1,0.5 -0.3,0.7 -0.2,0.2 -0.4,0.3 -0.7,0.3 -0.3,0 -0.5,-0.1 -0.7,-0.3 -0.2,-0.2 -0.3,-0.4 -0.3,-0.7 v -2.9 c 0,-0.3 0.1,-0.5 0.3,-0.7 0.2,-0.2 0.4,-0.3 0.7,-0.3 0.3,0 0.5,0.1 0.7,0.3 0.2,0.2 0.3,0.4 0.3,0.7 z m 4.6,1.7 -2.8,2.8 c -0.2,0.2 -0.4,0.3 -0.7,0.3 -0.3,0 -0.5,-0.1 -0.7,-0.3 -0.2,-0.2 -0.3,-0.4 -0.3,-0.7 0,-0.3 0.1,-0.5 0.3,-0.7 l 2.8,-2.8 c 0.2,-0.2 0.4,-0.3 0.7,-0.3 0.3,0 0.5,0.1 0.7,0.3 0.2,0.2 0.3,0.4 0.3,0.7 0,0.2 -0.1,0.5 -0.3,0.7 z"
       inkscape:connector-curvature="0"
       style="fill:#333333" /></g></svg>